<svg width="196" height="203" viewBox="0 0 196 203" fill="none" xmlns="http://www.w3.org/2000/svg">
<path fill-rule="evenodd" clip-rule="evenodd" d="M18.6052 78.3272C18.6382 83.9669 19.1557 89.5994 20.1923 95.1388C20.625 97.4836 21.1629 99.8068 21.8048 102.102C22.3949 104.214 23.0762 106.3 23.8388 108.354C24.5442 110.256 25.3324 112.127 26.1944 113.961C26.5977 114.847 27.0469 115.709 27.4841 116.578C27.899 117.388 28.3433 118.182 28.7837 118.978C29.6344 120.467 30.5176 121.937 31.4691 123.362C32.3646 124.718 33.3034 126.046 34.2868 127.339C36.151 129.806 38.1714 132.152 40.3106 134.376C42.1886 136.361 44.205 138.208 46.2597 140.002C48.0378 141.531 49.8784 142.985 51.7665 144.371C52.5872 144.959 53.4057 145.551 54.2438 146.113C55.0073 146.633 55.7814 147.135 56.5639 147.624C57.3191 148.095 58.0782 148.561 58.8492 149.006C59.5858 149.433 60.3292 149.848 61.0757 150.256C61.8005 150.645 62.5273 151.03 63.2673 151.39C64.6157 152.07 65.9922 152.692 67.3796 153.286C69.8367 154.332 72.3515 155.242 74.9057 156.015C78.8259 157.203 82.8444 158.057 86.9042 158.582C91.1766 159.143 95.4916 159.329 99.798 159.206C102.894 159.095 105.986 158.863 109.056 158.443C111.749 157.989 114.187 156.362 115.746 154.117C116.486 153.077 117.02 151.896 117.331 150.656C117.932 148.109 117.475 145.343 116.213 143.067C115.1 141.066 113.319 139.428 111.184 138.6C110.118 138.188 108.982 137.938 107.838 137.913C105.59 137.875 103.37 138.307 101.132 138.429C96.8633 138.647 92.5681 138.442 88.3471 137.76C84.8249 137.183 81.3508 136.292 77.9949 135.066C76.546 134.541 75.1223 133.949 73.7176 133.314C72.4195 132.716 71.1365 132.084 69.884 131.393C68.7434 130.769 67.6203 130.11 66.5242 129.409C65.5048 128.773 64.5191 128.082 63.5404 127.385C61.6766 126.024 59.8792 124.568 58.1916 122.991C55.1885 120.241 52.5088 117.133 50.1338 113.818C49.2813 112.605 48.4565 111.373 47.6998 110.097C47.0071 108.969 46.3723 107.804 45.7598 106.631C45.2059 105.564 44.6901 104.478 44.2064 103.377C43.3621 101.474 42.6254 99.5241 41.9854 97.5422C39.9695 91.3136 39.0011 84.7413 39.1194 78.1913C39.2116 72.8657 40.0441 67.5603 41.5487 62.457C42.283 60.001 43.1614 57.587 44.2066 55.2479C44.7262 54.078 45.2913 52.929 45.8794 51.7926C46.4587 50.6992 47.0673 49.6211 47.7124 48.5654C48.3054 47.612 48.9085 46.6641 49.551 45.7434C50.8356 43.8797 52.2401 42.102 53.7304 40.4024C55.2256 38.6972 56.8235 37.0851 58.514 35.5772C60.1499 34.1161 61.8599 32.7379 63.6486 31.4715C64.4897 30.8541 65.3643 30.287 66.2424 29.7264C67.132 29.1532 68.0481 28.6232 68.9658 28.0979C69.9192 27.5873 70.8619 27.0514 71.8431 26.5952C73.7696 25.6435 75.7536 24.8065 77.7754 24.0828C86.1286 21.0716 95.1727 20.0512 103.98 21.1028C108.043 21.581 112.05 22.498 115.928 23.8073C117.737 24.434 119.529 25.1192 121.27 25.9211C122.133 26.3197 122.996 26.7176 123.837 27.1598C124.656 27.5882 125.472 28.0225 126.274 28.4841C127.057 28.9339 127.829 29.4025 128.59 29.8884C130.081 30.8524 131.545 31.8616 132.944 32.9575C135.79 35.1708 138.445 37.6395 140.846 40.3343C141.991 41.6288 143.097 42.9603 144.121 44.355C145.127 45.6847 146.05 47.0752 146.941 48.4848C147.805 49.9093 148.654 51.3464 149.395 52.8414C150.176 54.3319 150.851 55.8777 151.502 57.4298C152.777 60.5548 153.788 63.7892 154.511 67.09C155.97 73.7318 156.271 80.6269 155.397 87.3728C155.174 88.9484 155.176 90.5737 155.585 92.1219C155.938 93.552 156.604 94.9052 157.518 96.0535C159.348 98.3619 162.223 99.7022 165.123 99.8605C167.984 100.028 170.827 98.8042 172.822 96.7644C173.75 95.7897 174.536 94.6623 175.042 93.4044C175.294 92.762 175.51 92.1001 175.629 91.4178C175.854 90.043 175.974 88.6504 176.115 87.2653C176.257 85.8642 176.32 84.4578 176.38 83.0516C176.4 82.3291 176.409 81.6066 176.425 80.8842C176.417 79.4348 176.429 77.9858 176.41 76.5361C176.305 71.2023 175.463 65.9077 174.188 60.7395C173.599 58.4017 172.945 56.0792 172.166 53.7986C171.431 51.5997 170.595 49.4352 169.673 47.3094C169.244 46.2972 168.766 45.3079 168.298 44.3148C167.798 43.3176 167.3 42.3194 166.77 41.3389C166.271 40.4194 165.756 39.5086 165.22 38.6108C164.693 37.7379 164.163 36.8664 163.601 36.0158C163.044 35.171 162.485 34.3274 161.896 33.5055C160.729 31.8638 159.495 30.2715 158.207 28.726C155.655 25.6858 152.87 22.8472 149.904 20.218C148.536 18.9986 147.115 17.8383 145.67 16.713C144.275 15.6466 142.862 14.6043 141.438 13.5774C140.746 13.1125 140.07 12.6212 139.363 12.1803C137.981 11.275 136.561 10.4277 135.122 9.62029C134.399 9.22658 133.681 8.82505 132.947 8.45318C131.481 7.70614 129.999 6.99231 128.484 6.35014C125.547 5.07576 122.524 4.0026 119.453 3.10723C107.351 -0.399876 94.4312 -0.91819 82.0702 1.45108C79.7953 1.89205 77.5371 2.42381 75.3082 3.05992C73.2669 3.63926 71.2445 4.29128 69.2598 5.04545C67.4284 5.73265 65.6186 6.48069 63.8452 7.30862C63.0018 7.69549 62.1707 8.10998 61.3397 8.5233C59.7852 9.32818 58.2433 10.1591 56.7463 11.0698C55.3651 11.9022 54.0108 12.7789 52.684 13.697C51.4329 14.5702 50.2055 15.478 49.0093 16.4261C46.7281 18.2386 44.5553 20.1839 42.5153 22.2665C40.6962 24.0807 38.9718 25.9838 37.3067 27.9412C35.886 29.6259 34.5251 31.3619 33.2306 33.1467C32.666 33.919 32.1284 34.7099 31.5876 35.499C31.0948 36.2252 30.6219 36.9633 30.1565 37.7067C29.2706 39.1311 28.4196 40.5779 27.6237 42.0555C26.9009 43.4149 26.1978 44.7862 25.5522 46.1851C24.997 47.376 24.4815 48.5862 23.9889 49.8049C23.1201 51.9995 22.326 54.2254 21.6746 56.4965C19.5781 63.5668 18.6259 70.9554 18.6052 78.3272Z" fill="#12B290"/>
<path fill-rule="evenodd" clip-rule="evenodd" d="M30.3863 202.927C30.3863 200.978 30.3863 199.029 30.3863 197.081C24.9058 197.074 19.4255 197.067 13.9453 197.06C12.9215 197.059 11.897 197.057 10.8733 197.056C10.0164 197.029 9.12164 196.828 8.43924 196.275C7.80268 195.767 7.48293 194.962 7.36012 194.176C7.23977 193.357 7.28029 192.522 7.25579 191.696C7.25577 190.096 7.25579 188.496 7.25578 186.895C7.27921 185.607 7.22671 184.216 7.86443 183.046C8.12937 182.583 8.53312 182.217 9.02134 182.006C10.0105 181.555 11.1297 181.544 12.1923 181.534C16.1758 181.534 20.1581 181.534 24.1412 181.534C26.1329 181.534 28.1243 181.534 30.1157 181.534C30.1696 181.53 30.2399 181.536 30.284 181.509C30.3396 181.413 30.2967 181.261 30.3133 181.156C30.3133 179.342 30.3133 177.527 30.3133 175.713C25.5393 175.714 20.7657 175.726 15.9918 175.729C14.1996 175.732 12.4076 175.734 10.6158 175.736C9.14786 175.727 7.66207 175.815 6.24065 176.215C5.09029 176.521 3.98956 177.03 3.03052 177.742C2.19073 178.344 1.44705 179.099 0.907737 179.988C0.412209 180.803 0.148399 181.742 0.0405446 182.685C-0.0234358 183.593 0.0101261 184.505 8.79238e-05 185.417C0.000295421 188.649 -0.000165121 191.881 0.000224568 195.114C0.0209792 196.56 0.402705 198.031 1.25139 199.215C2.0684 200.359 3.25312 201.167 4.50191 201.758C6.36018 202.624 8.41952 202.935 10.4523 202.927C17.0777 202.927 23.7027 202.927 30.3279 202.927C30.3476 202.927 30.367 202.927 30.3863 202.927ZM119.013 108.818C119.003 109.541 119.179 110.243 119.351 110.933C120.021 113.481 120.708 116.025 121.378 118.573C122.567 123.009 123.74 127.449 124.921 131.887C125.815 135.229 126.697 138.573 127.584 141.917C127.746 142.55 127.923 143.178 128.083 143.811C128.362 144.974 128.733 146.132 129.418 147.124C129.99 147.99 130.728 148.745 131.602 149.302C133.193 150.347 135.206 150.664 137.041 150.197C138.364 149.869 139.567 149.151 140.556 148.217C143.474 145.267 146.401 142.329 149.332 139.394C154.716 133.976 160.083 128.543 165.448 123.108C166.752 121.738 167.632 119.91 167.671 117.987C167.712 116.519 167.291 115.032 166.46 113.821C165.887 112.948 165.109 112.212 164.226 111.664C162.862 110.794 161.254 110.484 159.719 110.072C158.16 109.657 156.604 109.228 155.045 108.814C152.681 108.174 150.315 107.537 147.951 106.895C144.399 105.933 140.844 104.974 137.29 104.017C135.494 103.544 133.704 103.046 131.908 102.573C131.009 102.328 130.104 102.1 129.206 101.849C128.296 101.603 127.379 101.33 126.426 101.332C124.458 101.273 122.453 102.033 121.089 103.484C119.688 104.871 119.015 106.864 119.013 108.818Z" fill="#12B291"/>
<path fill-rule="evenodd" clip-rule="evenodd" d="M66.9835 202.927C66.9835 200.978 66.9835 199.029 66.9835 197.081C62.7275 197.081 58.4715 197.081 54.2155 197.081C52.6232 197.085 51.0309 197.082 49.4389 197.068C48.7471 197.041 48.052 197.088 47.3612 197.04C46.7631 196.995 46.1592 196.88 45.6184 196.609C45.1519 196.366 44.7608 195.998 44.5198 195.531C43.986 194.54 44.0239 193.375 44.0216 192.288C44.0149 188.233 44.0082 184.178 44.0014 180.123C43.999 179.108 43.9984 178.094 43.9991 177.079C43.9991 176.696 43.9991 176.314 43.9991 175.93C43.9929 175.864 44.009 175.744 43.94 175.724C42.67 175.693 41.3952 175.73 40.1244 175.713C39.4876 175.713 38.8507 175.713 38.2139 175.713C37.893 175.713 37.5722 175.713 37.2513 175.713C37.0913 175.713 36.9301 175.713 36.7701 175.713C36.6321 175.72 36.4381 175.698 36.3295 175.738C36.3305 180.084 36.3658 184.43 36.3728 188.776C36.3825 190.409 36.3724 192.041 36.3878 193.674C36.4057 194.369 36.3736 195.068 36.4571 195.76C36.6016 196.935 37.0234 198.076 37.7024 199.043C38.8963 200.734 40.78 201.792 42.7347 202.324C44.3148 202.784 45.9642 202.951 47.6039 202.927C52.8343 202.927 58.0636 202.927 63.2937 202.927C64.5234 202.927 65.7539 202.927 66.9835 202.927ZM72.9975 202.853C74.2493 202.853 75.5001 202.853 76.7519 202.853C77.692 202.853 78.6318 202.853 79.5714 202.853C79.7522 202.853 79.9317 202.853 80.112 202.853C80.2488 202.845 80.5041 202.898 80.5171 202.739C80.5282 200.245 80.5151 197.751 80.521 195.258C80.521 190.746 80.521 186.233 80.521 181.721C80.521 180.592 80.521 179.463 80.521 178.334C80.5031 177.487 80.5428 176.636 80.5092 175.79C80.4824 175.718 80.3504 175.749 80.2946 175.738C77.8622 175.738 75.4296 175.738 72.9975 175.738C72.9975 184.776 72.9975 193.814 72.9975 202.853ZM100.048 181.608C100.048 188.689 100.048 195.772 100.048 202.853C102.629 202.853 105.21 202.853 107.791 202.853C107.791 195.739 107.791 188.624 107.791 181.509C112.239 181.509 116.686 181.509 121.133 181.509C121.133 179.593 121.133 177.678 121.133 175.762C115.382 175.762 109.631 175.762 103.88 175.762C101.002 175.762 98.1247 175.762 95.2467 175.762C93.8054 175.762 92.3633 175.762 90.9225 175.762C90.2012 175.762 89.4812 175.762 88.7604 175.762C88.4003 175.762 88.0393 175.762 87.6793 175.762C87.4989 175.762 87.3188 175.762 87.1388 175.762C86.9815 175.775 86.7566 175.741 86.6324 175.787C86.6324 176.755 86.6324 177.723 86.6324 178.691C86.6324 179.417 86.6324 180.142 86.6324 180.867C86.6324 181.004 86.6324 181.142 86.6324 181.279C86.6407 181.378 86.5992 181.589 86.7195 181.6C88.6146 181.622 90.5122 181.596 92.4077 181.608C94.9545 181.608 97.5013 181.608 100.048 181.608ZM155.513 202.927C155.513 200.978 155.513 199.029 155.513 197.081C150.479 197.075 145.444 197.089 140.41 197.077C139.469 197.073 138.528 197.069 137.586 197.065C136.724 197.046 135.853 197.105 135 196.953C134.283 196.811 133.575 196.482 133.127 195.877C132.693 195.321 132.573 194.602 132.526 193.918C132.268 191.1 132.241 188.26 132.47 185.439C132.518 184.946 132.547 184.362 132.633 183.915C132.718 183.469 132.909 183.035 133.201 182.686C133.758 182.027 134.627 181.771 135.443 181.66C136.256 181.555 137.077 181.557 137.894 181.559C143.759 181.565 149.624 181.56 155.488 181.534C155.488 180.557 155.488 179.579 155.488 178.601C155.488 177.87 155.488 177.137 155.488 176.406C155.488 176.268 155.488 176.131 155.488 175.993C155.486 175.881 155.519 175.677 155.39 175.669C153.483 175.657 151.575 175.677 149.668 175.672C147.302 175.676 144.937 175.679 142.572 175.683C139.13 175.721 135.66 175.537 132.242 176.049C130.699 176.327 129.179 176.898 127.924 177.864C126.69 178.79 125.733 180.088 125.244 181.561C124.862 182.642 124.795 183.793 124.733 184.927C124.579 187.037 124.548 189.153 124.612 191.269C124.684 192.791 124.722 194.323 124.941 195.834C125.111 196.882 125.474 197.903 126.036 198.802C126.885 200.143 128.178 201.15 129.623 201.764C131.124 202.418 132.742 202.777 134.371 202.883C135.242 202.956 136.119 202.912 136.991 202.927C143.165 202.927 149.339 202.927 155.513 202.927ZM161.454 202.853C164.026 202.853 166.599 202.853 169.172 202.853C169.172 199.332 169.172 195.812 169.172 192.292C175.583 192.292 181.996 192.292 188.407 192.292C188.407 195.239 188.407 198.186 188.407 201.134C188.407 201.502 188.407 201.871 188.407 202.239C188.412 202.401 188.4 202.563 188.412 202.724C188.415 202.88 188.691 202.811 188.781 202.829C191.018 202.829 193.255 202.829 195.492 202.829C195.492 193.815 195.492 184.8 195.492 175.787C193.098 175.787 190.704 175.787 188.309 175.787C188.309 179.291 188.309 182.795 188.309 186.299C181.922 186.299 175.535 186.299 169.148 186.299C169.148 182.779 169.148 179.258 169.148 175.738C167.862 175.738 166.576 175.738 165.291 175.738C164.648 175.738 164.005 175.738 163.363 175.738C163.041 175.738 162.72 175.738 162.398 175.738C162.238 175.738 162.077 175.738 161.916 175.738C161.772 175.747 161.567 175.72 161.454 175.762C161.454 184.793 161.454 193.823 161.454 202.853Z" fill="#6A6B6B"/>
</svg>
