<svg width="768" height="486" viewBox="0 0 768 486" fill="none" xmlns="http://www.w3.org/2000/svg">
<path fill-rule="evenodd" clip-rule="evenodd" d="M25.8405 352.35C26.0061 353.849 27.2841 355.268 27.7589 356.517C30.2766 361.41 33.0733 366.146 35.8949 370.868C40.3398 377.889 45.0053 384.777 50.0332 391.393C52.6099 394.782 55.3647 398.023 58.1104 401.271C59.4855 402.908 60.8853 404.518 62.3182 406.101C63.0402 406.893 63.7721 407.678 64.4618 408.499C65.1557 409.127 66.0191 410.319 66.8675 410.346C66.7919 411.159 67.5697 411.979 68.3212 411.966C68.3326 412.68 69.0253 413.116 69.4682 413.592C70.1448 414.312 70.859 414.994 71.5419 415.719C72.3499 416.245 72.7569 417.473 73.813 417.474C73.784 418.232 74.6926 418.899 75.1523 419.289C75.7306 419.708 76.2383 420.491 76.8819 420.552C76.9155 421.168 77.6714 421.696 78.0449 422.032C85.3272 428.619 92.8371 434.989 100.886 440.651C108.629 446.237 116.724 451.33 125.065 455.958C126.114 456.638 127.593 457.13 128.755 457.953C129.236 458.244 129.714 458.534 130.262 458.618C130.653 458.72 131.279 458.787 131.376 459.378C132.907 460.035 134.361 460.991 135.884 461.686C137.396 462.116 138.969 463.578 140.361 463.32C140.361 463.538 140.361 463.751 140.361 463.968C141.117 463.969 141.882 464.619 142.454 464.778C154.281 470.062 166.511 474.432 178.988 477.905C190.798 481.088 202.877 483.255 215.027 484.647C227.375 486.078 239.809 486.079 252.226 486C443.816 486 635.407 486 826.997 486C826.997 324 826.997 162 826.997 -0.000327735C637.175 -0.000327735 447.349 -0.000327735 257.53 -0.000327735C245.851 0.0587655 234.148 -0.27709 222.498 0.65268C202.248 2.23793 182.171 6.26031 163.022 13.0796C154.826 15.9011 146.792 19.2078 138.945 22.8852C135.211 24.5399 131.45 26.6971 127.836 28.4425C124.663 30.5712 121.068 32.0107 117.888 34.1413C114.842 35.9925 111.83 37.8638 108.835 39.8693C105.922 41.8617 102.971 43.7392 100.108 45.9132C94.3948 49.8948 89.0509 54.366 83.7772 58.9022C78.6972 62.9858 74.1865 67.7287 69.5749 72.3569C67.203 74.3489 65.1609 76.7245 63.111 79.0108C59.1858 83.4867 55.2758 87.9786 51.5746 92.6434C49.8845 94.8127 48.2006 96.9857 46.6133 99.2277C45.8111 100.271 45.1163 101.364 44.3067 102.456C43.9386 102.988 43.5467 103.506 43.199 104.05C43.0105 104.31 42.8008 104.649 42.6248 104.816C41.1866 106.755 39.9462 109.118 38.4604 111.092C37.2241 113.18 35.8145 115.163 34.6185 117.274C33.3674 119.281 32.1805 121.453 31.0075 123.469C28.8182 127.614 26.3804 131.794 24.3638 136.06C16.4756 152.506 10.1754 169.814 6.08016 187.613C-0.40615 215.662 -1.71186 244.847 1.68699 273.409C3.48467 287.337 6.08878 301.184 10.4516 314.552C12.4645 321.116 14.6929 327.649 17.3393 333.975C18.4699 337.193 19.8884 340.296 21.298 343.394C21.9709 344.914 22.6408 346.439 23.3914 347.92C23.7852 348.716 24.1845 349.508 24.5769 350.303C25.0501 350.911 25.2419 352.129 25.8405 352.35ZM64.4446 240.294C64.6351 248.047 65.2365 255.799 66.5788 263.4C67.8522 269.663 69.4584 275.897 71.8046 281.853C75.7865 291.903 81.0788 301.462 87.9065 309.861C98.18 322.367 110.91 332.82 125.357 340.129C132.803 343.988 140.722 346.871 148.886 348.738C153.103 349.72 157.351 350.404 161.663 350.724C166.11 351.139 170.608 351.426 175.075 351.282C179.49 351.183 183.882 350.794 188.281 350.492C195.966 349.796 202.192 341.831 200.709 334.153C200.001 331.047 198.636 327.846 196.053 325.813C193.679 323.639 190.522 322.585 187.357 322.495C184.315 322.467 180.759 323.084 177.982 323.258C155.47 324.535 132.75 315.821 116.715 300.003C109.137 292.263 102.689 283.289 98.6731 273.173C94.3384 262.821 92.1009 251.572 92.2675 240.329C92.5683 227.087 95.9394 213.825 102.396 202.238C105.378 196.738 109.189 191.635 113.306 186.969C117.514 182.471 122.06 178.313 127.22 174.882C137.184 167.949 148.728 163.476 160.674 161.518C172.537 159.792 184.803 160.544 196.287 164.034C206.469 167.056 216.025 172.144 224.293 178.803C232 185.015 238.43 192.714 243.482 201.207C248.172 209.333 251.449 218.256 253.202 227.476C253.556 229.769 253.966 232.054 254.169 234.368C254.645 239.108 254.603 243.874 254.286 248.621C254.13 250.817 253.698 252.992 253.63 255.199C253.682 259.286 255.243 263.547 258.486 266.203C261.615 268.792 265.939 270.062 269.959 269.376C273.819 268.735 277.257 266.411 279.375 263.145C281.472 259.858 281.724 255.909 281.963 252.143C282.434 248.116 282.372 244.064 282.34 240.015C282.432 236.137 282.185 232.274 281.685 228.43C281.301 224.948 280.349 221.563 279.884 218.104C276.94 205.338 271.83 193.079 264.718 182.08C261.702 177.51 257.566 172.518 254.247 168.769C250.576 164.837 246.724 161.136 242.557 157.76C238.74 154.75 235.022 151.598 230.792 149.118C222.854 144.099 214.267 140.085 205.291 137.333C188.342 132.064 170.048 131.411 152.661 134.602C140.378 136.828 128.48 141.082 117.736 147.537C109.627 151.979 102.767 158.201 96.1072 164.507C94.8418 165.742 93.7723 167.138 92.6258 168.472C90.4359 170.778 88.5352 173.285 86.5431 175.765C79.4162 184.458 74.3077 194.651 70.3203 205.105C66.1027 216.32 64.6935 228.359 64.4446 240.294ZM203.516 282.018C203.641 285.893 205.324 289.5 206.043 293.232C209.541 305.91 212.901 318.632 216.365 331.318C217.119 334.373 219.163 337.131 222.117 338.326C224.403 339.425 227.096 339.428 229.407 338.423C232.786 337.005 235.04 333.894 237.658 331.473C240.233 328.973 242.483 326.132 245.246 323.82C249.121 320.182 252.697 316.25 256.432 312.481C259.295 309.697 262.213 306.974 264.972 304.078C266.931 302.089 269.376 299.53 269.96 296.916C271.284 292.529 268.658 287.593 264.559 285.827C262.484 284.91 260.207 284.517 258.05 283.829C255.775 283.341 253.588 282.536 251.326 281.999C245.052 280.357 238.804 278.633 232.554 276.903C229.403 276.218 225.81 274.944 222.898 274.417C219.755 273.834 216.196 272.33 213.249 272.189C207.979 272.057 203.345 276.757 203.516 282.018Z" fill="#16BC94"/>
</svg>
