<svg width="1115" height="800" viewBox="0 0 1115 800" fill="none" xmlns="http://www.w3.org/2000/svg">
<path fill-rule="evenodd" clip-rule="evenodd" d="M42.6562 580C42.9296 582.468 45.039 584.804 45.8225 586.86C49.9781 594.915 54.5943 602.71 59.2514 610.482C66.588 622.04 74.2886 633.378 82.5874 644.268C86.8403 649.848 91.3872 655.182 95.9192 660.529C98.1887 663.224 100.499 665.874 102.864 668.48C104.056 669.783 105.264 671.076 106.402 672.427C107.548 673.46 108.973 675.423 110.373 675.467C110.248 676.805 111.532 678.155 112.772 678.133C112.791 679.309 113.935 680.027 114.666 680.811C115.782 681.995 116.961 683.119 118.088 684.312C119.422 685.177 120.094 687.198 121.837 687.2C121.789 688.448 123.289 689.547 124.048 690.189C125.002 690.879 125.84 692.166 126.902 692.267C126.958 693.281 128.205 694.15 128.822 694.703C140.842 705.546 153.237 716.032 166.522 725.351C179.303 734.546 192.663 742.931 206.43 750.548C208.163 751.667 210.604 752.478 212.521 753.832C213.316 754.311 214.104 754.788 215.009 754.928C215.653 755.094 216.686 755.205 216.847 756.178C219.374 757.26 221.774 758.834 224.287 759.977C226.784 760.685 229.379 763.093 231.677 762.667C231.677 763.025 231.677 763.377 231.677 763.733C232.926 763.736 234.188 764.806 235.132 765.067C254.653 773.765 274.839 780.959 295.433 786.676C314.926 791.915 334.863 795.482 354.917 797.773C375.298 800.128 395.821 800.13 416.315 800C732.543 800 1048.77 800 1365 800C1365 533.333 1365 266.667 1365 8.0727e-06C1051.69 8.0727e-06 738.374 8.0727e-06 425.069 8.0727e-06C405.793 0.0972809 386.476 -0.455568 367.248 1.07492C333.824 3.68438 300.686 10.3056 269.08 21.5308C255.552 26.1752 242.293 31.6184 229.34 37.6716C223.176 40.3954 216.97 43.9464 211.004 46.8194C205.767 50.3235 199.833 52.693 194.584 56.2002C189.557 59.2475 184.586 62.3277 179.643 65.629C174.835 68.9087 169.963 71.9992 165.238 75.5778C155.808 82.1319 146.988 89.4919 138.283 96.9589C129.899 103.681 122.453 111.488 114.842 119.107C110.927 122.385 107.556 126.296 104.173 130.059C97.6941 137.427 91.2404 144.821 85.1315 152.5C82.342 156.071 79.5625 159.648 76.9427 163.338C75.6187 165.056 74.4717 166.855 73.1355 168.653C72.528 169.529 71.8811 170.381 71.3073 171.277C70.9961 171.704 70.6499 172.263 70.3595 172.537C67.9856 175.729 65.9383 179.619 63.486 182.868C61.4453 186.305 59.1188 189.57 57.1446 193.044C55.0797 196.348 53.1207 199.924 51.1846 203.242C47.5711 210.064 43.5474 216.945 40.2189 223.967C27.1991 251.039 16.8004 279.53 10.0409 308.829C-0.665024 354.999 -2.82016 403.041 2.7898 450.056C5.75695 472.983 10.0551 495.776 17.2562 517.782C20.5785 528.586 24.2567 539.34 28.6246 549.754C30.4907 555.051 32.832 560.158 35.1586 565.258C36.2692 567.76 37.3749 570.27 38.6138 572.709C39.2639 574.018 39.9229 575.322 40.5706 576.631C41.3516 577.631 41.6681 579.637 42.6562 580ZM106.374 395.547C106.688 408.308 107.681 421.069 109.897 433.58C111.998 443.89 114.649 454.151 118.522 463.955C125.094 480.499 133.829 496.234 145.099 510.059C162.056 530.646 183.066 547.853 206.912 559.884C219.203 566.235 232.273 570.981 245.749 574.054C252.709 575.67 259.72 576.797 266.837 577.323C274.177 578.007 281.601 578.479 288.975 578.242C296.262 578.08 303.51 577.439 310.771 576.942C323.456 575.796 333.732 562.686 331.284 550.046C330.116 544.934 327.863 539.665 323.6 536.318C319.68 532.739 314.471 531.004 309.246 530.857C304.225 530.811 298.357 531.826 293.772 532.113C256.615 534.214 219.116 519.87 192.648 493.832C180.141 481.091 169.498 466.32 162.87 449.668C155.715 432.627 152.022 414.111 152.297 395.604C152.793 373.807 158.357 351.975 169.014 332.903C173.936 323.848 180.227 315.449 187.021 307.769C193.968 300.365 201.471 293.52 209.988 287.871C226.433 276.46 245.488 269.097 265.205 265.873C284.786 263.032 305.03 264.27 323.985 270.016C340.792 274.99 356.564 283.366 370.211 294.327C382.931 304.552 393.545 317.225 401.884 331.206C409.624 344.582 415.033 359.27 417.926 374.447C418.511 378.22 419.187 381.982 419.522 385.792C420.308 393.595 420.239 401.439 419.716 409.253C419.458 412.868 418.744 416.449 418.632 420.081C418.719 426.808 421.294 433.822 426.648 438.194C431.813 442.457 438.949 444.547 445.584 443.418C451.956 442.362 457.631 438.536 461.126 433.161C464.587 427.75 465.003 421.25 465.397 415.051C466.174 408.421 466.072 401.752 466.019 395.087C466.172 388.703 465.765 382.345 464.939 376.017C464.306 370.286 462.734 364.714 461.965 359.019C457.107 338.005 448.673 317.826 436.934 299.721C431.956 292.198 425.13 283.981 419.652 277.809C413.592 271.338 407.234 265.244 400.356 259.688C394.057 254.732 387.92 249.545 380.937 245.462C367.836 237.201 353.663 230.593 338.847 226.063C310.873 217.39 280.678 216.315 251.979 221.568C231.705 225.233 212.067 232.235 194.334 242.86C180.949 250.171 169.627 260.414 158.635 270.793C156.546 272.827 154.781 275.125 152.888 277.32C149.274 281.116 146.137 285.243 142.848 289.326C131.085 303.635 122.653 320.414 116.072 337.621C109.111 356.083 106.785 375.9 106.374 395.547ZM335.918 464.228C336.123 470.607 338.901 476.543 340.088 482.687C345.863 503.556 351.408 524.497 357.126 545.38C358.371 550.408 361.743 554.948 366.619 556.915C370.392 558.724 374.837 558.729 378.652 557.075C384.229 554.741 387.949 549.62 392.27 545.635C396.52 541.521 400.234 536.842 404.795 533.038C411.19 527.049 417.094 520.577 423.257 514.373C427.983 509.789 432.8 505.307 437.353 500.54C440.586 497.266 444.623 493.055 445.586 488.751C447.772 481.529 443.436 473.404 436.672 470.498C433.247 468.988 429.488 468.342 425.928 467.209C422.173 466.406 418.563 465.08 414.83 464.197C404.475 461.493 394.163 458.655 383.846 455.808C378.644 454.68 372.715 452.583 367.908 451.716C362.721 450.756 356.847 448.28 351.982 448.047C343.284 447.83 335.636 455.568 335.918 464.228Z" fill="#16BC94"/>
</svg>
