<svg width="376" height="238" viewBox="0 0 376 238" fill="none" xmlns="http://www.w3.org/2000/svg">
<path fill-rule="evenodd" clip-rule="evenodd" d="M12.6507 172.55C12.7318 173.284 13.3574 173.979 13.5899 174.591C14.8225 176.987 16.1917 179.306 17.5731 181.618C19.7493 185.057 22.0334 188.43 24.495 191.67C25.7565 193.33 27.1052 194.916 28.4495 196.507C29.1227 197.309 29.808 198.098 30.5095 198.873C30.863 199.26 31.2213 199.645 31.559 200.047C31.8987 200.354 32.3215 200.938 32.7368 200.951C32.6998 201.349 33.0806 201.751 33.4485 201.745C33.4541 202.094 33.7932 202.308 34.0101 202.541C34.3413 202.893 34.691 203.228 35.0253 203.583C35.4209 203.84 35.6202 204.441 36.1372 204.442C36.123 204.813 36.5678 205.14 36.7929 205.331C37.076 205.536 37.3246 205.919 37.6397 205.949C37.6561 206.251 38.0262 206.51 38.2091 206.674C41.7744 209.9 45.4511 213.02 49.3916 215.792C53.1828 218.527 57.1455 221.022 61.2292 223.288C61.7431 223.621 62.4672 223.862 63.0359 224.265C63.2715 224.407 63.5053 224.549 63.7737 224.591C63.965 224.641 64.2714 224.674 64.319 224.963C65.0687 225.285 65.7806 225.753 66.526 226.093C67.2665 226.304 68.0363 227.02 68.7178 226.893C68.7178 227 68.7178 227.105 68.7178 227.211C69.0883 227.211 69.4627 227.53 69.7426 227.607C75.5332 230.195 81.5206 232.335 87.6292 234.036C93.4113 235.595 99.3248 236.656 105.273 237.338C111.319 238.038 117.406 238.039 123.485 238C217.284 238 311.085 238 404.883 238C404.883 158.667 404.883 79.3332 404.883 -0.000141029C311.95 -0.000141029 219.014 -0.000141029 126.082 -0.000141029C120.364 0.0287977 114.634 -0.135675 108.931 0.319645C99.0167 1.09596 89.1874 3.06577 79.8124 6.40527C75.7998 7.78697 71.8667 9.40632 68.0246 11.2072C66.1964 12.0175 64.3555 13.0739 62.586 13.9286C61.0323 14.9711 59.2724 15.676 57.7155 16.7194C56.2242 17.626 54.7499 18.5424 53.2836 19.5245C51.8574 20.5002 50.4123 21.4196 49.0107 22.4843C46.2137 24.4341 43.5974 26.6237 41.0155 28.8451C38.5284 30.8449 36.3201 33.1676 34.0623 35.4341C32.9011 36.4095 31.9013 37.5729 30.8977 38.6926C28.976 40.8844 27.0617 43.0842 25.2497 45.3686C24.4222 46.4309 23.5978 47.4951 22.8207 48.593C22.428 49.1039 22.0878 49.6393 21.6914 50.1741C21.5112 50.4347 21.3193 50.6882 21.1491 50.9547C21.0568 51.0817 20.9541 51.2481 20.868 51.3296C20.1638 52.2791 19.5566 53.4366 18.8292 54.403C18.2239 55.4257 17.5338 56.3968 16.9482 57.4305C16.3357 58.4134 15.7546 59.4772 15.1803 60.4644C14.1085 62.4939 12.915 64.5409 11.9277 66.6301C8.06579 74.684 4.98132 83.16 2.97634 91.8765C-0.199251 105.612 -0.838507 119.905 0.825518 133.892C1.70563 140.712 2.98056 147.493 5.11654 154.04C6.10199 157.254 7.19301 160.454 8.48861 163.552C9.04215 165.127 9.73663 166.647 10.4267 168.164C10.7562 168.909 11.0841 169.655 11.4516 170.381C11.6444 170.77 11.8399 171.158 12.032 171.548C12.2637 171.845 12.3576 172.442 12.6507 172.55ZM31.5506 117.675C31.6439 121.472 31.9383 125.268 32.5955 128.99C33.2189 132.057 34.0052 135.11 35.1539 138.027C37.1034 142.948 39.6944 147.63 43.0372 151.743C48.0669 157.867 54.2991 162.986 61.3723 166.565C65.018 168.455 68.8947 169.867 72.8918 170.781C74.9564 171.262 77.0359 171.597 79.1471 171.754C81.3241 171.957 83.5265 172.097 85.7136 172.027C87.8751 171.979 90.0249 171.788 92.1787 171.64C95.9413 171.299 98.9893 167.399 98.2632 163.639C97.9168 162.118 97.2486 160.55 95.9841 159.554C94.8214 158.49 93.2762 157.974 91.7263 157.93C90.2369 157.916 88.4964 158.218 87.1365 158.304C76.1149 158.929 64.992 154.661 57.1412 146.915C53.4314 143.125 50.2744 138.73 48.3083 133.776C46.1861 128.707 45.0907 123.198 45.1722 117.692C45.3195 111.207 46.9699 104.712 50.1308 99.0385C51.5909 96.3448 53.4567 93.8461 55.4722 91.5611C57.5327 89.3583 59.7583 87.3222 62.2845 85.6416C67.1624 82.2466 72.8146 80.0562 78.6631 79.0972C84.471 78.252 90.4759 78.6201 96.0983 80.3297C101.084 81.8094 105.762 84.3011 109.81 87.5621C113.583 90.604 116.731 94.3743 119.204 98.5336C121.501 102.513 123.105 106.883 123.963 111.398C124.137 112.52 124.337 113.64 124.436 114.773C124.67 117.094 124.649 119.428 124.494 121.753C124.417 122.828 124.206 123.893 124.173 124.974C124.198 126.975 124.962 129.062 126.55 130.363C128.082 131.631 130.199 132.253 132.167 131.917C134.057 131.603 135.74 130.464 136.777 128.865C137.804 127.256 137.927 125.322 138.044 123.478C138.274 121.505 138.244 119.521 138.228 117.538C138.274 115.639 138.153 113.748 137.908 111.865C137.72 110.16 137.254 108.502 137.026 106.808C135.585 100.556 133.083 94.5532 129.601 89.1669C128.125 86.9287 126.1 84.4841 124.475 82.6482C122.677 80.7229 120.792 78.91 118.751 77.2569C116.883 75.7828 115.063 74.2395 112.991 73.0248C109.105 70.5672 104.901 68.6012 100.507 67.2536C92.2089 64.6735 83.2525 64.3535 74.7398 65.9165C68.7262 67.0066 62.9012 69.0897 57.6414 72.2507C53.671 74.4258 50.3127 77.4729 47.0521 80.5609C46.4325 81.1658 45.9089 81.8495 45.3476 82.5025C44.2755 83.632 43.345 84.8596 42.3696 86.0744C38.8804 90.3313 36.3794 95.3231 34.4272 100.442C32.3624 105.935 31.6724 111.83 31.5506 117.675ZM99.6378 138.108C99.6988 140.005 100.523 141.772 100.875 143.599C102.588 149.808 104.232 156.038 105.928 162.25C106.298 163.746 107.298 165.097 108.744 165.682C109.863 166.22 111.182 166.222 112.313 165.73C113.968 165.035 115.071 163.512 116.353 162.326C117.613 161.102 118.715 159.711 120.068 158.579C121.965 156.797 123.716 154.871 125.544 153.026C126.946 151.662 128.375 150.329 129.725 148.911C130.685 147.937 131.882 146.684 132.168 145.403C132.816 143.255 131.53 140.838 129.523 139.973C128.507 139.524 127.393 139.332 126.337 138.994C125.223 138.756 124.152 138.361 123.045 138.098C119.973 137.294 116.914 136.45 113.854 135.603C112.311 135.267 110.553 134.643 109.127 134.385C107.588 134.1 105.846 133.363 104.403 133.294C101.823 133.229 99.5542 135.531 99.6378 138.108Z" fill="#16BC94"/>
</svg>
