<svg width="38" height="38" viewBox="0 0 38 38" fill="none" xmlns="http://www.w3.org/2000/svg">
<path fill-rule="evenodd" clip-rule="evenodd" d="M1.98236e-05 18.2158C-0.00119946 19.5133 0.127619 20.8084 0.361111 22.0829C0.463549 22.628 0.585447 23.1698 0.73651 23.7036C0.874043 24.1923 1.03122 24.6753 1.20837 25.1509C1.37261 25.5879 1.55259 26.019 1.75195 26.441C1.84657 26.6484 1.95314 26.8503 2.05405 27.0548C2.24739 27.4224 2.44984 27.7856 2.66865 28.1389C2.87097 28.4659 3.08148 28.788 3.30512 29.1011C3.51698 29.3991 3.73696 29.6913 3.96773 29.975C4.40508 30.5202 4.87689 31.0359 5.37203 31.5288C5.81182 31.9537 6.26047 32.3697 6.73538 32.7563C7.1419 33.0907 7.55971 33.4117 7.991 33.7136C8.17697 33.8449 8.3662 33.9718 8.55608 34.0974C8.73233 34.2132 8.91222 34.3235 9.09125 34.4349C9.43904 34.6415 9.78897 34.8451 10.1493 35.0292C10.4753 35.2001 10.8071 35.3603 11.1436 35.509C11.7223 35.7667 12.3151 35.9927 12.9185 36.1858C14.8373 36.8015 16.8604 37.0717 18.8737 37.0322C19.6116 37.0183 20.3482 36.9666 21.0806 36.8766C21.2511 36.8581 21.4216 36.8329 21.5849 36.7788C21.8848 36.6848 22.1661 36.5312 22.4068 36.3298C22.8795 35.941 23.2059 35.3693 23.2776 34.7604C23.3387 34.1724 23.1748 33.5634 22.8394 33.0777C22.5357 32.635 22.0719 32.3035 21.5523 32.1619C21.0241 32.0149 20.4707 32.0977 19.9372 32.155C19.421 32.2088 18.9009 32.2269 18.3819 32.217C17.4395 32.201 16.4991 32.0913 15.5795 31.8847C14.8027 31.7106 14.0419 31.4654 13.308 31.1582C12.9987 31.0219 12.6866 30.8897 12.3878 30.7314C12.1071 30.5917 11.8336 30.4382 11.5631 30.2798C11.3138 30.1326 11.0702 29.976 10.8311 29.8128C10.3763 29.5035 9.94231 29.1637 9.52749 28.8031C8.79309 28.1606 8.12792 27.4396 7.54696 26.6558C7.33529 26.3722 7.13711 26.079 6.94679 25.781C6.77997 25.5143 6.6207 25.2429 6.47104 24.9663C6.33658 24.7142 6.2073 24.4594 6.08858 24.1996C5.88008 23.7497 5.69627 23.2882 5.53895 22.8181C5.03884 21.3392 4.79249 19.7754 4.8192 18.2145C4.84024 17.0142 5.01736 15.8162 5.35238 14.6628C5.51301 14.1074 5.70843 13.5622 5.93715 13.0312C6.05112 12.7705 6.17177 12.5131 6.30013 12.2592C6.42542 12.0103 6.56307 11.7679 6.70237 11.5265C6.83706 11.3 6.97656 11.0765 7.1234 10.8577C7.4188 10.4202 7.73823 9.99855 8.08258 9.59813C8.76802 8.79702 9.54883 8.07793 10.4007 7.45519C10.6017 7.30965 10.8055 7.16769 11.0138 7.03278C11.2182 6.89793 11.4287 6.77231 11.6402 6.64866C11.8571 6.52473 12.0751 6.40313 12.2993 6.2929C12.527 6.17734 12.7577 6.0681 12.9913 5.96529C13.4549 5.76283 13.9292 5.58433 14.4123 5.43384C16.3989 4.80936 18.5295 4.65067 20.5872 4.97188C21.5228 5.11773 22.4448 5.35667 23.3317 5.68757C23.7503 5.84315 24.1608 6.01971 24.5622 6.21494C24.7643 6.31313 24.9647 6.41458 25.1605 6.52462C25.5308 6.72627 25.8895 6.94824 26.2392 7.18333C26.5852 7.4172 26.9205 7.66661 27.2439 7.93068C27.8955 8.46344 28.4987 9.05426 29.0421 9.69652C29.302 10.001 29.5452 10.3195 29.7781 10.6447C29.8906 10.8019 29.9984 10.9623 30.1032 11.1246C30.3143 11.4488 30.5087 11.7839 30.6927 12.124C30.8796 12.4689 31.0458 12.8243 31.2013 13.1843C31.5124 13.9058 31.7569 14.6548 31.9391 15.4186C32.3068 16.9666 32.3987 18.5786 32.2108 20.1583C32.1906 20.3438 32.1556 20.5288 32.1584 20.7162C32.1501 21.0808 32.2078 21.4493 32.3548 21.7852C32.4875 22.0928 32.6839 22.3767 32.9356 22.5997C33.4538 23.0574 34.1742 23.2888 34.8634 23.2108C35.5157 23.1339 36.1207 22.7691 36.5108 22.2463C36.6979 21.9952 36.84 21.7094 36.916 21.4051C36.9581 21.2478 36.9756 21.0857 36.9949 20.9245C37.0775 20.2665 37.1244 19.6043 37.1322 18.9412C37.1353 18.2756 37.1448 17.6091 37.0863 16.9455C36.9875 15.7405 36.7445 14.5504 36.4103 13.3896C36.257 12.8548 36.079 12.3273 35.879 11.8084C35.6901 11.3202 35.4834 10.8385 35.2532 10.3684C35.1368 10.1337 35.0198 9.89936 34.8938 9.66968C34.7756 9.45457 34.6554 9.24055 34.5289 9.03012C34.4061 8.82285 34.276 8.62022 34.1459 8.4176C34.0149 8.21987 33.8833 8.02235 33.7437 7.83066C33.4711 7.44768 33.1821 7.07611 32.8788 6.71694C32.2821 6.00498 31.6267 5.34334 30.9286 4.73015C30.6059 4.44781 30.2746 4.175 29.9344 3.91388C29.6046 3.66502 29.2718 3.41992 28.9352 3.18033C28.7729 3.06704 28.6072 2.95886 28.4425 2.8491C28.1155 2.6417 27.7843 2.43991 27.4449 2.25308C27.2754 2.16052 27.106 2.06747 26.9333 1.98089C26.5861 1.80568 26.2348 1.63921 25.8773 1.486C25.5293 1.33687 25.1769 1.19774 24.8199 1.07178C21.9572 0.0521828 18.8444 -0.233353 15.8378 0.187003C14.7259 0.345532 13.6268 0.596709 12.5601 0.947543C12.1028 1.098 11.6513 1.26609 11.2073 1.45178C11.0039 1.535 10.8038 1.62538 10.6039 1.71631C10.4029 1.8067 10.2054 1.90473 10.0088 2.00434C9.64167 2.19225 9.27917 2.38948 8.92543 2.60164C8.60036 2.79418 8.2839 3.00031 7.97304 3.21486C7.68 3.41672 7.39351 3.62819 7.11428 3.84858C6.57834 4.26913 6.0699 4.72275 5.59145 5.20689C5.16748 5.63005 4.76435 6.07249 4.3728 6.52541C4.04074 6.91686 3.72118 7.31916 3.41918 7.73407C3.28709 7.913 3.16056 8.09586 3.03514 8.27944C2.92241 8.44948 2.80891 8.619 2.70038 8.79168C2.49067 9.12293 2.29312 9.46196 2.10463 9.80557C1.93505 10.1218 1.77292 10.4424 1.61918 10.7665C1.48941 11.0447 1.366 11.326 1.25225 11.6112C1.04497 12.1206 0.866865 12.6412 0.709454 13.1679C0.226488 14.8036 -0.00245358 16.511 1.98236e-05 18.2158Z" fill="#12B290"/>
<path fill-rule="evenodd" clip-rule="evenodd" d="M23.6313 25.3007C23.6258 25.4692 23.6619 25.6335 23.7048 25.7942C23.8634 26.3864 24.0226 26.9785 24.1824 27.5703C24.4589 28.6034 24.7398 29.6353 25.0161 30.6684C25.2261 31.4453 25.4332 32.2228 25.642 33C25.6802 33.1472 25.7215 33.2936 25.7596 33.4407C25.7977 33.5776 25.8277 33.7175 25.8835 33.8489C25.9762 34.0929 26.1228 34.3138 26.3059 34.4992C26.4666 34.6561 26.6555 34.7836 26.8653 34.8659C27.262 35.0239 27.721 35.016 28.114 34.8511C28.3917 34.7409 28.6283 34.5518 28.8329 34.3384C29.4769 33.6964 30.1208 33.0543 30.7648 32.4123C32.026 31.1462 33.3016 29.8936 34.5588 28.6239C34.8714 28.3034 35.0738 27.8655 35.0747 27.4142C35.0831 27.0735 34.9729 26.7339 34.7785 26.4554C34.6389 26.2546 34.4527 26.0861 34.244 25.9592C33.9161 25.7613 33.5329 25.6929 33.1688 25.5934C32.8031 25.4942 32.4364 25.3987 32.0705 25.3003C31.5166 25.153 30.9633 25.0038 30.4093 24.8571C29.5784 24.6365 28.7486 24.4122 27.9175 24.1924C27.4988 24.0796 27.0793 23.9703 26.6605 23.8584C26.45 23.8064 26.242 23.7452 26.0317 23.6928C25.8142 23.6324 25.5937 23.5715 25.3658 23.5705C24.9041 23.5552 24.4378 23.7353 24.1157 24.0673C23.7949 24.3899 23.6224 24.8476 23.6313 25.3007Z" fill="#12B291"/>
</svg>
