<svg width="182" height="25" viewBox="0 0 182 25" fill="none" xmlns="http://www.w3.org/2000/svg">
<path fill-rule="evenodd" clip-rule="evenodd" d="M62.3594 25C62.3594 23.213 62.3594 21.4264 62.3594 19.6396C58.995 19.6396 55.6317 19.6396 52.2676 19.6396C49.7426 19.6331 47.2173 19.6477 44.6926 19.6353C43.8323 19.6211 42.927 19.5283 42.1872 19.0475C41.5776 18.6404 41.2163 17.9534 41.0977 17.2451C40.9516 16.5487 40.9775 15.8351 40.9787 15.1288C40.9552 10.1085 40.9607 5.08787 40.9609 0.0675676C38.5808 0.0675676 36.2006 0.0675676 33.8206 0.0675676C33.8252 4.05748 33.8608 8.04663 33.8674 12.0365C33.8742 13.5363 33.8819 15.0367 33.8885 16.5364C33.89 17.1779 33.8666 17.8218 33.9499 18.4592C34.0972 19.543 34.4901 20.6025 35.1425 21.4882C36.2581 23.0216 38.0103 23.9657 39.8144 24.4495C41.2797 24.8649 42.8095 25.0186 44.3294 25C49.1955 25 54.0614 25 58.927 25C60.0713 25 61.2152 25 62.3594 25ZM74.94 24.9324C74.94 16.644 74.94 8.35568 74.94 0.0675676C73.7749 0.0675676 72.6097 0.0675676 71.4446 0.0675676C70.8598 0.0675676 70.275 0.0675676 69.6901 0.0675676C69.3958 0.0675676 69.1005 0.0675676 68.8061 0.0675676C68.6605 0.0675676 68.5161 0.0675676 68.3709 0.0675676C68.2416 0.0737398 68.0602 0.0538878 67.9583 0.0900901C67.9583 5.38464 67.9583 10.6787 67.9583 15.973C67.9583 18.6218 67.9583 21.2705 67.9583 23.9189C67.9583 24.0856 67.9583 24.2523 67.9583 24.4189C67.9624 24.5693 67.9505 24.7476 67.9694 24.8843C67.9957 24.9498 68.121 24.9206 68.1711 24.9324C70.4272 24.9324 72.6839 24.9324 74.94 24.9324ZM80.675 5.45045C84.8306 5.45045 88.9868 5.45045 93.1423 5.45045C93.1423 9.89207 93.1423 14.3335 93.1423 18.7748C93.1423 19.8874 93.1423 21 93.1423 22.1126C93.1423 22.9459 93.1423 23.7793 93.1423 24.6126C93.1356 24.7518 93.1015 24.9563 93.3151 24.9324C95.6603 24.9325 98.0055 24.9324 100.351 24.9324C100.351 18.4084 100.351 11.8843 100.351 5.36036C104.492 5.36036 108.632 5.36036 112.773 5.36036C112.773 3.6036 112.773 1.84685 112.773 0.0900901C102.074 0.0900901 91.3737 0.0900901 80.675 0.0900901C80.675 1.877 80.675 3.66358 80.675 5.45045ZM144.78 25C144.78 23.213 144.78 21.4264 144.78 19.6396C140.101 19.6396 135.422 19.6396 130.744 19.6396C129.864 19.6396 128.985 19.6396 128.105 19.6396C127.3 19.627 126.484 19.6753 125.688 19.5283C125.023 19.399 124.361 19.1041 123.945 18.5514C123.523 18.0215 123.408 17.3356 123.367 16.6827C123.134 14.1074 123.11 11.5131 123.323 8.93533C123.372 8.46467 123.389 7.98818 123.479 7.52281C123.563 7.12269 123.738 6.7404 124.007 6.42982C124.527 5.8263 125.349 5.58675 126.111 5.49303C126.863 5.38487 127.623 5.39849 128.38 5.40004C133.832 5.37398 139.283 5.38607 144.734 5.38288C144.734 3.58832 144.734 1.79444 144.734 0C140.194 0.031921 135.655 0.0206315 131.115 0.0225225C129.431 0.0473999 127.744 -0.0199405 126.061 0.0752794C124.698 0.168097 123.316 0.233418 121.996 0.615045C120.899 0.920923 119.855 1.42194 118.959 2.12418C118.192 2.73105 117.533 3.48185 117.07 4.34379C116.657 5.12641 116.376 5.97863 116.265 6.8565C115.935 10.1619 115.905 13.4971 116.149 16.8108C116.207 17.6164 116.266 18.4271 116.473 19.2113C116.761 20.3053 117.299 21.3459 118.091 22.1645C118.866 22.9817 119.832 23.5981 120.879 24.0136C122.63 24.7358 124.535 25.0051 126.42 25C132.54 25 138.66 25 144.78 25ZM150.311 24.9324C152.706 24.9324 155.101 24.9324 157.496 24.9324C157.496 21.7043 157.496 18.4756 157.496 15.2477C163.465 15.2477 169.435 15.2477 175.404 15.2477C175.404 18.4609 175.404 21.6743 175.404 24.8874C177.603 24.8874 179.801 24.8874 182 24.8874C182 16.6292 182 8.37071 182 0.112613C180.885 0.112613 179.77 0.112613 178.654 0.112613C177.815 0.112613 176.977 0.112613 176.138 0.112613C175.98 0.112613 175.821 0.112613 175.662 0.112613C175.528 0.117324 175.32 0.0720827 175.315 0.230336C175.309 2.408 175.316 4.58564 175.313 6.76314C175.313 7.76722 175.313 8.77102 175.313 9.77477C169.366 9.77477 163.42 9.77477 157.474 9.77477C157.474 6.54663 157.474 3.31799 157.474 0.0900901C155.086 0.0900901 152.698 0.0900901 150.311 0.0900901C150.311 8.37111 150.311 16.6517 150.311 24.9324Z" fill="#6A6B6B"/>
<path fill-rule="evenodd" clip-rule="evenodd" d="M28.2668 24.9776C28.2668 23.1983 28.2668 21.419 28.2668 19.6398C23.6019 19.6398 18.9362 19.6398 14.2716 19.6398C13.3965 19.6398 12.5215 19.6398 11.6467 19.6398C10.8548 19.636 10.0532 19.6802 9.27095 19.5295C8.60925 19.4101 7.97678 19.1121 7.53485 18.5968C7.1286 18.1141 6.9179 17.5036 6.83045 16.8881C6.72788 16.2334 6.75774 15.5687 6.755 14.9093C6.755 13.6494 6.755 12.3905 6.755 11.1309C6.76004 10.0662 6.70278 8.99133 6.89657 7.93797C7.03359 7.11388 7.45695 6.28752 8.23258 5.88905C8.92286 5.52864 9.71785 5.42614 10.4851 5.3894C13.4371 5.35907 16.3878 5.35225 19.3428 5.36048C22.3023 5.36048 25.2622 5.36048 28.2214 5.36048C28.2214 3.58844 28.2214 1.81709 28.2214 0.045166C23.7772 0.0621075 19.3333 0.0661352 14.8892 0.070145C13.2201 0.0756004 11.5506 0.0810567 9.8817 0.0865114C8.51168 0.0725978 7.12872 0.142724 5.80126 0.513044C4.70945 0.804594 3.6722 1.29025 2.76021 1.95492C1.98364 2.52229 1.28124 3.21401 0.801879 4.05238C0.360956 4.8166 0.10393 5.67678 0.0355523 6.55511C-0.0128069 7.38784 0.000917389 8.22151 -1.66148e-05 9.05632C0.022241 12.0282 -0.02716 15.0009 0.0146408 17.9722C0.0540089 19.2932 0.420536 20.6295 1.24258 21.6898C2.02368 22.7069 3.11648 23.4401 4.27965 23.9606C6.00618 24.7388 7.92339 25.0069 9.80512 24.9791C15.9592 24.9911 22.113 25.0101 28.2668 24.9776Z" fill="#12B291"/>
</svg>
